<?xml version="1.0" encoding="UTF-8"?>
<svg width="1000px" height="1000px" viewBox="0 0 1000 1000" version="1.1" xmlns="http://www.w3.org/2000/svg" xmlns:xlink="http://www.w3.org/1999/xlink">
    <!-- Generator: Sketch 54.1 (76490) - https://sketchapp.com -->
    <title>Times</title>
    <desc>Created with Sketch.</desc>
    <g id="Times" stroke="none" stroke-width="1" fill="none" fill-rule="evenodd">
        <path d="M689.545455,500 L973.835227,215.710227 C1008.72159,180.823864 1008.72159,124.261364 973.835227,89.3465909 L910.653409,26.1647727 C875.767045,-8.72159091 819.204545,-8.72159091 784.289773,26.1647727 L500,310.454545 L215.710227,26.1647727 C180.823864,-8.72159091 124.261364,-8.72159091 89.3465909,26.1647727 L26.1647727,89.3465909 C-8.72159091,124.232955 -8.72159091,180.795455 26.1647727,215.710227 L310.454545,500 L26.1647727,784.289773 C-8.72159091,819.176136 -8.72159091,875.738636 26.1647727,910.653409 L89.3465909,973.835227 C124.232955,1008.72159 180.823864,1008.72159 215.710227,973.835227 L500,689.545455 L784.289773,973.835227 C819.176136,1008.72159 875.767045,1008.72159 910.653409,973.835227 L973.835227,910.653409 C1008.72159,875.767045 1008.72159,819.204545 973.835227,784.289773 L689.545455,500 Z" id="Path" fill="#000000" fill-rule="nonzero"></path>
    </g>
</svg>